<svg id="Ebene_1" data-name="Ebene 1" xmlns="http://www.w3.org/2000/svg" width="600" height="400" viewBox="0 0 600 400"><defs><style>.cls-1{fill:#f15a22;}.cls-2{fill:#f58220;}.cls-3{fill:#0057a8;}.cls-4{fill:#ef4123;}</style></defs><polygon class="cls-1" points="288.82 217.93 355.13 255.13 357.52 226.93 339.23 207.28 312.07 202.78 288.82 217.93"/><polygon class="cls-2" points="300.07 89.83 355.13 255.13 410.18 199.93 300.07 89.83"/><polygon class="cls-3" points="291.07 177.28 288.82 217.93 373.43 199.93 291.07 177.28"/><polygon class="cls-4" points="248.63 258.73 259.57 244.18 257.63 226.47 230.63 208.93 189.82 199.93 248.63 258.73"/><polygon class="cls-1" points="189.82 199.93 257.63 226.47 294.07 95.83 189.82 199.93"/><polygon class="cls-2" points="248.63 258.73 300.07 310.18 348.23 261.88 257.63 226.47 248.63 258.73"/></svg>