<svg width="456" height="120" viewBox="0 0 456 120" fill="none" xmlns="http://www.w3.org/2000/svg">
<g clip-path="url(#clip0_313_3689)">
<path fill-rule="evenodd" clip-rule="evenodd" d="M119.447 68.1832C119.812 65.5076 120 62.7758 120 60C120 26.8629 93.1371 0 60 0C45.8661 0 32.8737 4.88705 22.6203 13.0636C33.7906 13.5889 40.46 19.125 48.5084 26.8484C52.4884 30.6678 56.3096 34.6607 60.1301 38.6529L60.1302 38.653L60.1303 38.6531C64.8791 43.6152 69.6267 48.5762 74.6769 53.2013C88.5496 65.9078 102.35 68.6289 119.447 68.1832ZM109.152 94.4198C109.103 94.4802 109.055 94.5402 109.007 94.5999C108.964 94.6684 108.922 94.7367 108.879 94.8048C108.971 94.6768 109.061 94.5485 109.152 94.4198ZM96.5399 107.594C86.4211 115.374 73.7507 120 60 120C26.8629 120 0 93.1371 0 60C0 48.6601 3.14587 38.055 8.61251 29.0098C11.9103 28.815 14.5747 28.9289 17.5686 29.1284C27.2151 29.7728 37.4823 34.8824 42.864 39.986C47.7941 44.2726 55.0554 55.605 62.8652 67.7933L62.8652 67.7934L62.8653 67.7934C74.827 86.4617 88.0755 107.138 96.2049 107.581C96.3135 107.587 96.4226 107.591 96.5399 107.594Z" fill="#2158ED"/>
<path fill-rule="evenodd" clip-rule="evenodd" d="M101.32 103.5C100.756 103.99 100.55 104.249 100.11 104.599C99.11 104.599 98.6525 104.606 98.205 104.581C84.7678 103.848 57.3453 47.8381 44.864 36.986C39.4823 31.8824 29.2151 26.7728 19.5686 26.1284C16.5584 25.9278 13.8814 25.8138 10.5587 26.0129C12 24.0001 14.5 20.5001 18.943 16.2426C19.3954 16.101 19.8259 16.0244 20.2248 16.0244C32.2466 16.139 39.1304 21.8086 47.5084 29.8484C56.4356 38.4153 64.5637 47.8552 73.6769 56.2013C87.6758 69.0234 101.601 71.6776 118.914 71.1703C118.93 71.1698 118.961 71.1689 118.961 71.1689C116 88.0001 105.38 99.9693 101.32 103.5Z" fill="#FF422B"/>
<path d="M252.355 84.5117C252.355 89.4085 251.422 94.0303 249.555 98.3769C247.743 102.669 245.217 106.437 241.978 109.684C238.793 112.875 235.032 115.406 230.695 117.276C226.412 119.092 221.827 120 216.94 120C212.548 120 208.32 119.23 204.257 117.689C200.249 116.149 196.625 113.893 193.385 110.922C190.146 113.893 186.494 116.149 182.431 117.689C178.368 119.23 174.14 120 169.748 120C164.861 120 160.249 119.092 155.911 117.276C151.628 115.406 147.867 112.875 144.628 109.684C141.443 106.437 138.917 102.669 137.051 98.3769C135.239 94.0303 134.333 89.4085 134.333 84.5117V0H157.97V84.5117C157.97 86.1623 158.272 87.7304 158.876 89.216C159.48 90.6465 160.304 91.912 161.347 93.0124C162.445 94.0578 163.708 94.8831 165.136 95.4883C166.563 96.0935 168.1 96.3961 169.748 96.3961C171.395 96.3961 172.932 96.0935 174.36 95.4883C175.787 94.8831 177.023 94.0578 178.066 93.0124C179.164 91.912 180.015 90.6465 180.619 89.216C181.223 87.7304 181.525 86.1623 181.525 84.5117V0H205.163V84.5117C205.163 86.1623 205.465 87.7304 206.069 89.216C206.673 90.6465 207.496 91.912 208.54 93.0124C209.638 94.0578 210.901 94.8831 212.328 95.4883C213.756 96.0935 215.293 96.3961 216.94 96.3961C218.588 96.3961 220.125 96.0935 221.553 95.4883C222.98 94.8831 224.216 94.0578 225.259 93.0124C226.357 91.912 227.208 90.6465 227.812 89.216C228.471 87.7304 228.8 86.1623 228.8 84.5117V0H252.355V84.5117Z" fill="#2158ED"/>
<path d="M266.604 35.4883C266.604 30.5915 267.537 25.9972 269.404 21.7056C271.271 17.414 273.797 13.6726 276.981 10.4814C280.221 7.23521 283.982 4.67675 288.265 2.80605C292.547 0.935351 297.132 0 302.019 0H356.212V23.6864H302.019C300.372 23.6864 298.834 23.989 297.407 24.5942C295.979 25.1994 294.716 26.0523 293.618 27.1527C292.575 28.1981 291.751 29.436 291.147 30.8666C290.543 32.2971 290.241 33.8377 290.241 35.4883C290.241 37.1389 290.543 38.707 291.147 40.1926C291.751 41.6231 292.575 42.8886 293.618 43.989C294.716 45.0344 295.979 45.8597 297.407 46.4649C298.834 47.0702 300.372 47.3728 302.019 47.3728H325.656C330.543 47.3728 335.128 48.3081 339.411 50.1788C343.748 51.9945 347.509 54.5254 350.694 57.7717C353.933 60.9629 356.459 64.7318 358.271 69.0784C360.138 73.37 361.071 77.9642 361.071 82.8611C361.071 87.7579 360.138 92.3521 358.271 96.6437C356.459 100.935 353.933 104.704 350.694 107.95C347.509 111.142 343.748 113.673 339.411 115.543C335.128 117.414 330.543 118.349 325.656 118.349H273.193V94.663H325.656C327.304 94.663 328.841 94.3604 330.268 93.7552C331.696 93.1499 332.931 92.3246 333.975 91.2792C335.073 90.1788 335.924 88.9133 336.528 87.4828C337.132 86.0523 337.434 84.5117 337.434 82.8611C337.434 81.2105 337.132 79.6699 336.528 78.2393C335.924 76.8088 335.073 75.5708 333.975 74.5254C332.931 73.425 331.696 72.5722 330.268 71.967C328.841 71.3618 327.304 71.0591 325.656 71.0591H302.019C297.132 71.0591 292.547 70.1238 288.265 68.2531C283.982 66.3824 280.221 63.8514 276.981 60.6602C273.797 57.414 271.271 53.6451 269.404 49.3535C267.537 45.0069 266.604 40.3851 266.604 35.4883Z" fill="#2158ED"/>
<path d="M457.598 118.349H376.638V0H457.598V23.6864H400.275V47.3728H439.067V71.0591H400.275V94.663H457.598V118.349Z" fill="#2158ED"/>
</g>
<defs>
<clipPath id="clip0_313_3689">
<rect width="456" height="120" fill="white"/>
</clipPath>
</defs>
</svg>
