<?xml version="1.0" encoding="UTF-8"?>
<!DOCTYPE svg PUBLIC "-//W3C//DTD SVG 1.1//EN" "http://www.w3.org/Graphics/SVG/1.1/DTD/svg11.dtd">
<!-- Creator: CorelDRAW -->
<svg xmlns="http://www.w3.org/2000/svg" xml:space="preserve" width="3024px" height="1964px" version="1.1" style="shape-rendering:geometricPrecision; text-rendering:geometricPrecision; image-rendering:optimizeQuality; fill-rule:evenodd; clip-rule:evenodd"
viewBox="0 0 302400 196400"
 xmlns:xlink="http://www.w3.org/1999/xlink"
 xmlns:xodm="http://www.corel.com/coreldraw/odm/2003">
 <defs>
  <style type="text/css">
   <![CDATA[
    .fil2 {fill:black}
    .fil3 {fill:#003399}
    .fil0 {fill:#1A1A1A}
    .fil1 {fill:#E4EAEA}
    .fil4 {fill:black}
    .fnt0 {font-weight:bold;font-size:4253.4px;font-family:'Swis721 BT'}
   ]]>
  </style>
 </defs>
 <g id="Camada_x0020_1">
  <metadata id="CorelCorpID_0Corel-Layer"/>
  <circle class="fil0" cx="149347.1" cy="96485.5" r="57359.3"/>
  <circle class="fil1" cx="149347.1" cy="96485.5" r="55759.1"/>
  <path class="fil2" d="M149307.1 114527c-759.3,716.7 -1820.5,-412 -2118,-1167.4 -395.7,-1004.3 -538.3,-1881.7 -578.1,-2955.2 -39.2,-1059.1 349.4,-5264.5 1655.9,-5380.1 475.5,-495.3 1519.4,291.7 1684.9,781l258.9 499.7c617.5,1346.9 680.4,3040.6 578.7,4506.5 -53.1,763 -597,3617.8 -1482.3,3715.5zm4834.8 -7871.1c-600.5,-26.9 -1050.3,-1092.9 -1008.5,-1696.6 994.9,-4.9 3749.5,321.3 3765.9,1675.8 -901.9,-21 -1834.5,62 -2757.4,20.8zm-637.2 367.9l4102 -188.8c-230.6,-389.6 -498,-875.1 -788.8,-1222.2 -427.2,-509.9 -566.7,-536.6 -1203,-683.8 -904.2,-209.3 -2271.5,-583.8 -3154.2,-616.4 40.3,354.1 745.8,2711.1 1044,2711.2zm-10654.9 -17922.6l-83.4 4599.8 313.9 484.4 706.7 450.9c730.1,162.9 3487.2,1395.2 3647.8,82.3 91,-744 -376.7,-3523.5 -579.4,-4332.3l-125.1 -419.3c-231.6,-770.6 -893.2,-717.5 -1636.3,-832.2 -382.4,-59.1 -732.6,-112.3 -1121.6,-132.8 -603.9,-31.8 -623.1,30.6 -1122.6,99.2zm-2437.3 -4571.3l-548.4 135.1 51.6 19279.3 -10190.1 34.3 -140.6 37.3 -422.5 5744.8 581.6 25.3c-5.3,-1183.4 23,-2225.2 351.7,-3368.4 326.3,-1135.3 758,-1790.6 2063,-1699.5 984,-8.5 8632.9,-37.3 8928.4,-96.6l278.6 -18825.6c270.8,-183.4 1967.2,69.3 2374.7,175.4 851,221.6 1394.5,766.9 1794.3,879.3 616.2,173.3 4265.8,79.9 5189.6,82.5 1022.4,3 10273.7,87.4 10342.7,-162.6l-42.7 -105.5c-264.1,-133.3 -790.3,-629.4 -1132.5,-817.8 -1360.7,-749 -3127.7,-1268.1 -4639.1,-1421.3 -4970.1,-503.4 -9866.2,-166.4 -14840.3,104zm9009.7 10672.9l106.2 25.8 14243.7 50.8c756.3,-1002.8 -524.5,-3557.7 -702,-4702.4l-374.8 -901.6c-411.9,-292.1 -355.8,-362.6 -971.2,-375 -3005.3,-60.7 -6645.3,-14.9 -9648.9,1.9 -915.9,5.1 -1837.6,-10.3 -2752.4,17.5 -1245.2,38 -1239.8,419.4 -1030.9,1575.3 143.2,792.1 257.7,1510.9 445.9,2298.2 82.7,345.9 250.7,1397.9 372.1,1647.2 103,211 274.9,259.8 312.3,362.3zm-14564.5 17384.7c-1819,-235.4 -1231.4,-4234.7 -1123.8,-5337.5 53.8,-360.5 400.2,-1033.8 682.2,-1247.3 573.7,-588.7 1376.6,191.8 1555.5,747.1 656.4,1184.2 694.8,5930.8 -1113.9,5837.7zm-4350.1 -1479.7c-972.4,-3065.4 539.9,-8160.8 2019.9,-4323.9 314.8,1524.8 472.5,2457.8 80.1,4028.1 -448.4,1794.6 -1597.9,1694.8 -2100,295.8zm41639.8 333.7l-20596.9 117.7 -62 -40.6 72.5 -1066.5 -31.6 -2528 670.8 -46.8 7177.4 5.8 2635 15.6 7643.6 18c375.2,-9.9 2815.5,-48.9 2985.2,14.5 100.8,276.6 -441.6,3201.6 -494,3510.3zm-1440.1 -6077.3c308.1,-44.7 813.2,-351.6 1123.2,-334.3 136.6,115 409.9,700.4 475.8,886.2l364 1205.8 46.5 176.6c-453.4,72.5 -1981.1,109.9 -2326.6,-79.6l-1.1 -1733.4 318.2 -121.3zm-1747.4 -4512.3l-13.4 5660c175.5,1016.2 -1477.6,816.8 -2038.8,830.9l-5329.2 -80.1c-867.3,-132.9 -1337.7,-2805.3 -1566.9,-3586.6 -258.2,-881.1 -1242.3,-3363.9 -38.5,-3847.5 568.8,-228.5 4116.5,-125.6 4982.6,-124.1 1258.3,1.9 3791.8,-572 4004.2,1147.4zm-3738.3 -4631.2l2211.5 1675.2 -47.8 62.4c-179.7,69.1 -8304,119.7 -8814,17.5 -2264.1,-453.6 -5300.8,-1296 -7561.2,-1378.4l-545.5 66.4c149.1,-18 705.1,214.9 790.6,317.4 782.9,177.7 2488,978.4 3333.6,1313.6 933.5,370.2 2536.2,915.4 2562.1,2010.1l58.2 2053.2c-551,-29.3 -1212.6,-375.1 -1912.6,-412.1 150.7,178.3 446.8,335.9 644.4,491.4 1409.1,1108.8 2622.5,3205.8 2797.2,4941.5l-7258.8 140.3 -748.6 -2428.6c-135.9,-431 -682.4,-1024.7 -1054.5,-1259.3 -566.4,-357.5 -1241.1,-275.2 -1722.2,184 -925.5,883.8 -1193.9,1993 -1509.2,3171.4 -129.2,1497.7 -153.6,2637.4 -66.7,4126.1l-8245 -632.3 -1302.5 -103.9 35.5 -1245.8c66.2,-1386.4 -754.8,-3555 647.1,-3840.5 568.7,-115.8 2735.4,-70.5 3569.6,-68.1 1031.7,2.9 689.7,-256.3 1297.5,-229.4l3945.4 199.4 -2.8 50.2c325.2,1272.5 -3293.2,916.8 -3336.1,1065.6 -22.3,515.8 1737.6,889.3 3055.6,820.5 154.2,-412.6 413.4,-1440.8 511.1,-1863 488.2,-2106.2 1942.2,-3005 2127.8,-3338.2 -465.4,295 -1156.5,744.6 -1460.7,1201.7 -706.9,1062 -448.4,1634 -1179.4,1566.8l-10223.3 -27.5c-3651.2,347.3 -4894.8,-990.5 -5565.6,1940 -367.7,1606.5 -453.1,5277.2 1370.8,5784.3l4585.1 474.9c936.2,18.5 1857.7,43.2 2795.9,44.4 1242.1,1.6 1160.5,-263.9 1626.5,-1215.3 81.9,-708.4 466.2,-422.7 1178.9,-358 658.4,59.9 4581.8,316.4 4661.5,417 168,1150 783,3036.2 2133.5,3418 425.9,120.4 1477.3,47.8 1975.1,45.9 647,-2.6 1383.2,30.2 2019.5,-14.8 877,-62 644.2,-588 1082.4,-1000.2l719.2 -2277.1 8577.6 -189.6 37.5 39.8 418.7 1224.8c1098.2,2547.5 1569.6,2301.4 4271.7,2263.4 2131.6,-30 1453.6,224.8 2557.5,-1049l668.2 -2303.2 1782.7 -142.2c373.2,-528.5 662.9,-4023.6 592.8,-4745.3 -176.7,-1815.9 -744.1,-2425.8 -1570.1,-3878.9l-1353.3 -1773.9c-610.3,-202.4 974.1,1277.1 784.3,2222.5 -25.6,328 -395.9,806.9 -696.1,798.6l-732.6 -5478.5c-265.6,-275.5 -95.9,-333.5 -849.8,-991.6 -960.6,-838.8 -3589.5,-1776 -3596.6,-2019l-71.6 115.4z"/>
  <path class="fil3" d="M131017.7 85355.3l6855.9 -3169.2 110.8 46.1 -88.5 19583.4c-326.5,135.4 -11160,1333.8 -11568.8,1623.8 842.1,19.1 2073.9,-55.4 2922.6,-130.3 1525.6,-134.6 2967,-35.3 4440,-180.7 1071.5,-105.8 3932.6,82.3 4589.7,-51.8 926.1,-107.4 661.3,-1192.2 666.4,-2079.7 32.7,-5626.7 -33,-13506.6 -43.5,-18817.9l14369.2 25.9 4472.8 103.8 3.8 -132.4 -1446.6 -131.5c-511.7,54.9 -1475.7,-71.1 -2055.5,-89.9 -2093.7,-67.7 -4126,-359 -6175.2,-465 -715.1,-36.9 -1327.3,-128.9 -2074.1,-145.9 -1226.3,-27.8 -2915.4,-185.1 -4191.9,-288.2 -674.7,-54.5 -1407.1,-111.2 -2078.3,-148 -995.4,-54.8 -977.8,-189.2 -1863.6,279.7 -481.2,254.6 -966.2,521.7 -1447,772.1 -971.2,505.7 -1926.9,1047.3 -2897.3,1541.9 -1465.6,746.9 -2980.6,1681.1 -4312,2343.2 -360.1,179.1 -1245.7,537.9 -1378.2,901.9 667.8,-27 2501.7,-1223 3189.3,-1391.3z"/>
  <text x="113435.4" y="123353.3"  class="fil3 fnt0">LOGÍSTICA E TRANSPORTES LTDA</text>
  <path class="fil4" d="M152428.8 70347.2c34.3,29.6 29,103.6 43.5,156.8 18.5,67.9 77.3,270.2 76.5,337.5 -1.5,119.8 10.3,263.3 12.6,395 4.6,260.8 27.1,518.2 27.1,794.4 0,547.7 0,1095.4 0,1643.2 0,140.3 -14.1,255.4 -13.3,400.9 0.6,115.2 -26.2,269.8 -27.2,380.2 -2.1,231 -92.1,511.5 -239.9,581.4 -127.9,60.5 -40.4,109.3 -287.9,127.1 -52.1,3.8 -46.2,-9.2 -83.4,-3.9 -63.6,9.2 -216.3,-1 -296.8,3.5 -100.6,5.5 -292.7,41.5 -396,9.1 -126.2,-39.5 -71.5,-198.3 -70.9,-309.6 0.7,-116.4 -13.7,-265.8 -13.7,-400.4l0 -2872.4c0,-336.3 13.7,-668.6 13.3,-1015.3 0,-98.9 12.7,-109.2 21.7,-184.2 7.2,-60.4 -34.2,-100.8 19.5,-262.2 18.2,-55 16.2,-26.5 52.6,-47.9 14.7,-8.7 644.8,58.3 748.3,59.9 51.6,0.9 120.7,21 177.9,29.1 112.5,16.1 54.2,26.6 133.2,73.7 19.5,11.6 66.1,72.4 102.9,104.1zm19317.5 -1749.7c-69.1,39.7 -128.2,39.3 -134,166.6 -4.4,97.8 0.3,208.5 0.3,307.6l0 1837c0,814 13.3,1634.2 13.3,2438.1l0 3052.7c-0.4,264.6 123,247.3 367.6,247.3 214.8,0 1014.4,36.7 1183.1,-19.3 160.6,-53.2 92.9,-305.1 92.9,-488.5 0,-197.1 13.4,-393.1 13.4,-601.2l0 -2444.9c0,-232.1 -30.2,-1058.6 8.3,-1220.7 34.3,-144.8 5.1,-998.1 5.1,-1217.3 0,-407.5 0,-815 0,-1222.4 0,-106.7 10.3,-196.1 13.8,-287 3.1,-79.7 -14.1,-194.4 -13.8,-294.2 0.5,-264.8 -137.5,-247.9 -367.5,-247.3 -132.5,0.2 -809.9,-26.6 -907.5,-11.5 -42.2,6.6 -242.7,-13.6 -275,5zm-40050.6 814.9c36.8,-108.6 -6.8,-403.5 -14.8,-527.4 -13,-200.6 -166.6,-210.1 -354.2,-214 -158.3,-3.4 -308.8,-82.3 -487.7,-80.2 -19.2,0.3 -258.3,-14.9 -269.8,-17.3 -83.7,-18 -179.3,-6.5 -271.4,-9.3 -180.2,-5.3 -363.4,-13.7 -554,-13.7 -185.5,0 -375.8,28.5 -540.9,26.9 -68,-0.7 -189.9,18 -257.8,29.5 -72.2,12.1 -136,48.8 -217.5,63 -32.2,5.7 -92.3,14.8 -115.8,24.6 -46.7,19.6 -52.1,41.5 -85.1,55.2 -32.3,13.2 -74.9,21.6 -105.9,34.3 -44.4,18.1 -47.4,43.1 -76,64.3 -46.3,34.1 -129.3,75.8 -176.4,110.9 -23.2,17.1 -141.5,112.8 -150.8,129.9 -62.4,115.3 -180.9,209.9 -229.8,337.9 -29.4,77 -69,125.8 -91.7,195.5 -25.8,78.9 -65.7,134.5 -83.5,197.1 -22.5,79.3 -19.3,166.8 -44.6,242.6 -27.3,82.1 -37.8,144.6 -52.9,227.7 -9.4,51.8 -46.2,487.4 -42.7,524.7 12.6,131.9 14.5,369.4 13.2,528.5 -1.1,154.5 22.1,378 39.9,528 11.2,95 46.6,130 54.7,225.9 5.7,66.7 29.8,168.4 52.4,228.3 16.5,43.5 27.8,36.4 44.4,102.4 5.5,21.5 24.4,82.4 35.6,104.9 22,44.1 39.2,25.6 57.9,82.1 16.6,50.3 15.5,53.8 43.6,96.9 83.4,127.5 163.9,169.7 292.3,275.4 75.5,62.2 107.7,62.7 181.1,106.2 108.4,63.9 84.6,48.7 211.1,69.7 177.3,29.4 264.8,84.4 477.4,90.4 82.4,2.3 166.4,25.7 234.8,52.2 103.9,40.3 429.8,42.4 500.1,67.6 35.8,12.7 61.9,31.7 95.2,45.1 30.9,12.5 78.2,19.5 111.4,29 88.9,25.7 115.5,58.3 191.5,95.6 79.1,38.9 103.1,61.1 114.6,165.7 10.2,92.8 65,128.2 67.9,212.7 13.1,380.7 76.6,928.7 -161,1201.5 -51.7,59.3 -141.3,30.9 -218,69.4 -97.5,49 -123,34.2 -222.1,58.3 -140.6,34.2 -925.4,20.7 -1102,6.5 -69.5,-5.7 -192.7,-26.2 -260.4,-26.8 -87,-0.7 -173.6,-27.1 -253.7,-26.9 -273.2,0.7 -365.5,-74.4 -444.4,97.7 -5,10.9 -23.8,485.8 -23.8,537.4 0,180.5 -16.9,380.9 -0.1,541.3 22.3,213.2 250.3,143.1 365.8,202.2 159.4,81.6 366,61.5 593.5,121.4 48,12.6 81.4,4.9 125.9,14.5 187.2,40.1 607.7,12.8 811.4,36.9 183.7,21.8 596.8,-4 816.1,-13.9 67.3,-3.1 154.9,-43.7 218.8,-61.6 78.7,-22.1 149.2,-23.1 230.5,-50.1 69.5,-23.1 132.3,-51.9 203.8,-76.7 85.7,-29.8 275.7,-187 327.6,-240.5 46.7,-48.3 101.7,-80.8 150.6,-136.6 11.4,-13.2 48.4,-60.6 59.7,-80.6 47.5,-84.7 16.2,28.7 113.4,-174 22.7,-47.3 36,-38.3 60.5,-79.7 21.9,-37.1 22.5,-61 38.7,-101.7 10.6,-26.6 36.2,-43.9 55,-85.1 43.6,-95.4 2.7,-111 72.9,-214.3 16,-23.6 38.4,-198.8 43.5,-237.1 23.1,-172.6 66.8,-321.9 67.6,-500.4 0.2,-78.8 13.7,-175.8 13.7,-273.4 0,-95.3 -4.9,-185.3 10.8,-269.6 21.8,-117.4 -10.4,-408.8 -10.3,-552.5 0.1,-124.8 -51,-365.5 -76.5,-484.4 -19.7,-91.2 -7.8,-150.1 -45.6,-241.9 -55.1,-133.3 -229.8,-456.5 -313.1,-535.2 -194.4,-183.7 -260.6,-225.3 -509,-346.1 -77.7,-37.7 -149.1,-29.9 -232.3,-48.3 -85.2,-19.1 -152.1,-43.7 -230,-57.2 -76.6,-13.6 -168.9,-21.3 -242.7,-37.8 -155.7,-34.8 -320.4,-55.7 -475.5,-92.4 -94.9,-22.3 -138,-50.3 -219.1,-68.1 -38.1,-8.3 -223.9,-31.5 -240.6,-39.9 -32.3,-16.5 -16.9,-37.8 -74.3,-65.9 -23.4,-11.6 -70.7,-30.4 -90.5,-49.9 -39.1,-38.7 -57.8,-163.1 -57.1,-223.3 2.4,-229 -45.7,-931.2 69.2,-1040 35.7,-33.9 38.8,-60.4 62.8,-84.1 32.9,-32.6 60.4,-15.7 77,-63.3 24.4,-69.7 0.7,-29 90.5,-49.7 45.9,-10.5 86.8,-1.6 134.8,-5.5 152.3,-11.7 378,-41.7 527.5,-40.2 180.9,1.8 362.6,13.6 554.7,13.6 173.4,0 389,-5.2 553.6,14.3 97.3,11.5 168.7,12.3 274.7,12.5 99.6,0 178.9,19 181,-99.9 1.2,-73 -8.6,-534 0.7,-561.7zm34860.5 1049.9c41,57.3 46.6,143.3 46.2,226.4 -0.4,76 28.9,153.1 41.5,225.7 26.1,150.3 48.9,317.1 66.1,475 5.1,45.8 21.4,59.4 40.6,99.7 35.5,74.7 24.5,264.3 47,353.7 20.2,79.7 56.3,137.2 59.5,207.8 3.1,69.6 25.6,168.1 26.2,240.9 1.3,142.2 89.4,280.9 93.6,447.5 3.5,144.2 55.4,319 85.7,455.4 15.4,69.1 24.1,163.9 37,237.5 16.1,92.4 -20.2,120.3 -117.4,103.7 -78.5,-13.5 -177.5,6.5 -251.9,11.9 -45.3,3.3 -58.5,18.4 -120.4,12.8 -46.1,-4.2 -60.8,-18.7 -120.2,-13.3 -32.9,3 -87.2,19.6 -116.9,24.7 -37.3,6.4 -65.1,-12 -116.8,-11.7 -68,0.2 -187.5,-5.1 -254.4,-12.7 -78.3,-9 -60.4,-127.5 -46.2,-186.9 17.8,-74.6 2.5,-170.4 31.2,-236 65,-149.4 57.6,-291.5 84.9,-456.2 10.9,-65.8 38.5,-128 53.9,-213.3 16.2,-90.1 13.1,-149.5 24.4,-242.8 13.1,-107.4 39.4,-133.3 62.4,-211.3 47.2,-161.2 41.8,-325.6 51.1,-356.4 14.4,-47.8 31.1,-41.8 43.9,-89.6 32.3,-120.1 22.8,-386.9 81.3,-459.7 63.3,-79.2 48.3,-385.5 79,-455.7 30.8,-70.7 50.4,-113.9 88.7,-177.1zm794.6 4581.3c3.4,44 30.2,52.3 37.7,82.6 5.7,23.1 12.1,77.1 16.8,103.5 13.1,75.8 29.9,104.6 40.3,200.2 6.9,63.2 14.6,151 28.2,212.2 10.8,48.1 53.9,104 70.1,170.4 15.5,63.2 15.5,148.5 31.5,208.9 13.7,52.2 46.6,143.9 54,186.5 19.3,110.1 -24.4,361.4 68.3,412.7 31,17 848.6,61.5 904.3,48 269.4,-65.1 822.9,118.7 748.5,-204.3 -12.3,-53.5 -31.1,-147.8 -46.2,-194.2 -26,-79.9 -48.7,-73.3 -56.3,-184.3 -4.1,-61.3 -24.8,-152.3 -26.4,-214.1 -2.5,-96.3 -36.1,-121.2 -53.8,-186.5 -34.1,-124.6 -33.2,-285.5 -74.6,-406.3 -70.9,-207.6 -25.8,-320.8 -123.8,-597.6 -20.3,-57.2 -20.1,-144.3 -33.6,-207 -28.9,-133.7 -79.3,-257.1 -88.5,-392.5 -10.3,-149.1 -58.8,-256.2 -87.9,-392.9 -14,-65.7 -14.1,-153.8 -28.9,-211.5 -13.8,-54.1 -48.1,-131.9 -54.9,-179 -19.2,-134 -27.8,-301.1 -64.8,-416.1 -45.2,-141 -49.7,-262.1 -79.4,-401.5 -15.9,-74 -42,-124.1 -54.2,-186.4 -11.7,-60 -23.9,-149.6 -30.9,-209.5 -15.4,-130.1 -80.5,-248 -92.4,-388.6 -11,-130.9 -71.4,-252.3 -80.8,-400.2 -16.8,-260.7 -64.3,-280.6 -82.1,-398.7 -23.7,-156.5 -33.8,-252.4 -82,-399.1 -35.3,-107.4 -29.9,-293.6 -66.5,-414.4 -20.4,-67.6 -43.7,-92.9 -50,-190.5 -3.3,-51.5 -22,-156.7 -33.3,-207.1 -31.4,-141.6 -69,-246.8 -73.2,-407.9 -3.4,-140.5 -89.5,-254.1 -93.8,-387.1 -6.2,-186 -53.7,-219.6 -219.2,-262 -120.7,-30.8 -325.3,-22 -442.5,-12.2 -159.5,13.4 -308.1,-26.6 -467.3,-13 -150.8,12.8 -767.2,18.4 -928.3,-1.2 -426.3,-52.1 -442,87.3 -482.5,454.4 -32.7,295.8 -79.1,263.7 -91.5,389.3 -16.5,166.9 -23.9,254.1 -75.8,405.2 -35.3,103.1 -40.9,290.9 -74.4,406.6 -57.8,199.1 -172,914.3 -206.2,996.1 -40.9,97.2 -53.5,295.4 -72.9,408.1 -11,63.8 -43.1,122 -51.5,189 -17.7,140.5 -56,265.8 -86.9,394 -31.9,131.9 -30.8,284.4 -69.4,411.5 -38.1,125.2 -61.2,269.8 -82.3,398.6 -14.2,86.1 -34.3,106.2 -44.3,196.4 -21.2,189.8 -103.1,452.1 -118.9,602.3 -11.3,105.7 -63.1,278.2 -88.6,392.5 -10.3,46 -24.2,161.3 -30.5,209.9 -10,75.9 -28.5,119.8 -45.7,188.1 -33.6,133.1 -41.7,259.2 -85.4,395.5 -39.7,124.1 -37.4,287.7 -68.8,412.1 -32.2,128 -63.5,260.4 -93.7,387.3 -15.5,65.3 -42.9,107.8 -57.2,183.5 -25.2,133.9 -33.6,254.9 -71.9,408.9 -63.1,253.3 117.3,196.6 481.9,227.8 309.9,26.5 650.2,-3.3 948,-13.5 244.2,-8.5 194.4,-35.8 220.4,-260.9 7.2,-61.8 33,-126 47.7,-192.8 32.5,-148.7 31.7,-236.8 79.9,-401 33.5,-114.4 46.5,-324.3 66.6,-414.4 14.7,-65.9 52.9,-133.7 58.8,-181.5 29.5,-238 55.8,-179 301.9,-179l962.2 -0.2c125.5,-0.8 322.6,26.4 446.9,26.9zm-22944.8 -4648.4c141.2,200.5 113.4,411 156.4,664.2 11.8,69.4 48.4,138 50.9,223 2.9,97.1 0.2,166.1 15.9,258.1 13.6,79.7 45.3,145.1 60.3,213.5 35.1,159.9 52.1,299.4 93.6,454.1 39,145.6 30.2,335.7 66.3,481.5 11.3,46.1 18.5,61.7 35.6,104.6 14.1,35.3 6.6,73.2 16.6,117 16.2,71.2 20.4,163.4 36.1,237.8 23.4,111.1 83.6,178.6 62.1,350.9 -6.6,52.4 -28.1,46 -72.7,61.1 -77.5,26.3 -125.4,-32.1 -231.3,-11.3 -81.3,15.8 -170.1,10.6 -263.1,10.6 -187.2,0 -218.3,7.5 -396.7,-17.1 -55.6,-7.6 -248.5,60.9 -189.4,-148 24.1,-85.3 57.1,-414.8 74.6,-473.3 25.6,-85.9 47.8,-112.8 50.7,-223.1 4.4,-169.2 53.6,-316 82.4,-465.3 27.5,-142.5 16.3,-333.6 85.6,-462.1 29.5,-54.8 42.4,-156.1 45.9,-228.1 5.7,-117.4 91.7,-317 93.3,-454.3 0.6,-40.3 18.3,-213.2 30.4,-243.4 91.3,-228.2 46.4,-368.3 96.5,-450.4zm-821.4 4628.2c26.9,-17 849.7,-6.5 955,-6.5 166.1,0 302,14.3 467.9,13.1 75.4,-0.4 137.4,22.8 213.3,27.3 77.1,4.5 83,73.1 86.7,146.7 3.7,78 23.7,135.3 27,213.4 2.7,62.5 35.8,113 40.2,200.3 4.8,94.4 40.7,326.2 80.2,400.8 47.8,90.3 65,300.3 66,414.9 1.6,178 99.2,213.6 261.2,213.4 306.2,-0.2 629.9,13.4 948.4,13.4 115.7,0 372.7,22 446.9,-34.3 67.9,-51.5 40.7,-96.8 20.7,-179.4 -19.2,-78.9 -11.4,-133.5 -20.5,-213.3 -18.6,-162.3 -49.6,-253.9 -85,-395.8 -15.1,-60.2 -23.8,-141.6 -35.4,-205.2 -14.4,-78.4 -34.1,-117.7 -51.5,-182.2 -31.8,-117.8 -23.2,-310.7 -61.1,-420 -52.5,-150.9 -66.4,-211.5 -88.1,-386.2 -10.7,-86.6 -70.2,-178.1 -79,-402 -4.2,-105.5 -78.5,-255.8 -92.6,-388.2 -7.8,-74.2 -11.3,-144 -32.8,-207.6 -22.2,-65.6 -46.2,-111.3 -48.4,-192.3 -1.5,-58.8 -18.8,-157 -25.4,-215 -11.7,-103.4 -36.3,-110 -51.2,-182.5 -24.4,-119.3 -33.1,-302.3 -77.2,-403.7 -55.3,-126.8 -43.4,-266.1 -79.5,-401.5 -48.7,-183.7 -59.7,-165.8 -86.5,-394.4 -16.9,-143 -79.9,-211.7 -80.5,-393.9 -0.2,-62 -27.2,-141.9 -45.3,-195 -29.2,-85.5 -22.6,-116.6 -37.8,-202.8 -10.2,-57.8 -17.8,-153.5 -31.6,-208.7 -16.9,-68.1 -38.3,-111.9 -54.1,-186.6 -33.6,-159.6 -7.8,-251.2 -76.3,-404.6 -55.5,-124.4 -28.9,-288.8 -69.2,-405.1 -24.8,-71.9 -44.8,-90.8 -58.5,-181.8 -10.2,-67.4 -6.2,-153.6 -21.5,-219.1 -31.1,-134 -66.5,-248.2 -85.7,-388.5 -11.4,-82.7 -61.5,-339.1 -98.3,-382.9 -56.7,-67.5 -267.8,-94.7 -391,-83.2 -129.9,12.1 -304.8,-15.1 -440.4,-14.1 -160.3,1 -320.9,0.2 -481.2,0.2 -303.5,0 -656.2,-23.2 -943.2,12.2 -144.1,17.7 -195.5,135.5 -199.3,282 -2.8,105.6 -39.5,112.5 -56.7,183.6 -10.4,42.6 -34.9,158.6 -36.8,203.8 -6.7,164.2 -41.2,271.3 -66.1,414.9 -21.4,122.8 -36.3,282.9 -83.6,390.5 -24.7,56.1 -52.2,330 -65.6,415.5 -8,51.5 -44.9,112.3 -51.3,189.1 -20,241.5 -50,233.3 -88,392.9 -19.4,81.3 -40.1,303 -63.7,417.3 -12.4,60.1 -41,117.6 -48.2,185.5 -20.6,196.6 -106.5,372.3 -121.6,600 -4,61.1 -33,126.7 -46.9,186.8 -30.5,131.1 -33.1,278.4 -76.2,404.6 -43.6,127.1 -46.8,266.9 -74,400.4 -27,132.2 -67.6,258.4 -83.2,397.8 -7.5,67.7 -28.9,127.2 -52,188.3 -24.8,66 -26.8,133.4 -38.7,201.8 -12.5,72 -18,137.1 -32.3,208.3 -12.8,64.2 -42.3,114.9 -50.8,189.8 -16,142.2 -47.6,262 -81.6,392.5 -32.6,125.5 -40.2,277.6 -74.8,406 -30.1,111.9 -50.5,302.3 -83.5,397.3 -50.3,144.7 -46.1,259.7 -82,399.3 -28.7,112 -72.7,273 -78.5,395.7 -3.1,65.3 -41.8,146.8 34.8,178.9 32.2,13.4 167.7,8.6 221.5,18.8 86.5,16.4 362.7,16.1 465.1,16.1 171.5,0 814.1,17.1 894.8,-60.4 36,-34.5 55.1,-337.3 69.3,-412 27.1,-141 72.7,-207.6 92.7,-381.6 14.6,-126.3 72.6,-269.6 79,-401.7 6.2,-126.9 14.1,-330.6 93.5,-381.1zm-7439.3 -1647.6l1493.2 4.1c-0.1,34.5 28.5,85.2 25.7,119 -3.5,42.2 -11.9,68.1 -11.7,128.4 0.3,95.8 0,191.6 0,287.3 0,194 13.4,361.3 13.4,554.4l-0.1 1703.4c-0.2,37.7 9.7,105.4 7.5,122.2 -6.4,48.2 -7.4,77.3 -7.4,131.6 0,87.7 -21.7,191.7 80.9,206.7 163.3,23.7 367.9,21.2 540.9,27 198.7,6.7 339.5,12.2 540.5,0.2 146,-8.8 439.8,20.9 477.2,-90.8 24.6,-73.5 17.4,-1519.1 17.4,-1659.4 0,-752.3 13.4,-1498 13.4,-2257.8 0,-757 0,-1514.1 0,-2271.2 0,-211.2 36,-1526 -12.4,-1664 -22,-62.6 -85,-120.4 -155.9,-124.6 -32.8,-2 -64.8,18.3 -125,11 -203.8,-24.7 -487.5,-12.8 -702.2,-12.8l-536.2 4.8c-80.8,19.1 -135.3,41.6 -138.9,142.2 -3.3,96.9 -13.1,169.3 -13.1,274.1l0 1703.4c0,192.1 13.4,371.9 13.4,554.4 0,93.5 0,187 0,280.5 0,46.8 1,94.3 0.4,140.8 -0.6,61.5 -22.5,74.8 -28.3,118.3 -204.3,15.7 -351,41.3 -573.1,41.3 -73.8,0 -861.5,7.1 -897.8,-23.7 -48.1,-40.7 -37.3,-197.9 -37.3,-270 0,-207 0,-414.2 0,-621.2 0,-110.8 -13,-184.9 -13.4,-293.9 -0.2,-102.2 13.4,-182.9 13.4,-293.9 0,-204.9 0,-409.7 0,-614.5 0,-200.9 14.3,-416.5 13.5,-601.2 -0.5,-110.5 -12.9,-185.3 -13.6,-294.1 -0.8,-115.3 23.6,-136.6 -79.9,-207.3 -94.5,-64.7 -121.7,-4.6 -246.1,-34.4 -61.3,-14.8 -816.5,-5.6 -916.4,-5.6 -80.6,0 -233.6,-10.5 -302.6,4.9 -104.7,23.3 -126.7,63.7 -124.9,182.6 1.2,83.9 -31.5,195 -7.9,288.6 6.4,25.6 -5.7,232.5 -5.7,292.4 0,823.8 0,1647.6 0,2471.5 0,816.5 13.3,1628.3 13.3,2451.5l0 1843.6c0,134.9 -68.6,506 113.4,508.3 74.4,1.1 212.1,13.7 282.5,24.7 68.5,10.6 227.7,1.6 305.7,1.6 149.6,0 487.2,17.9 605.4,-9.3 94,-21.5 187.8,20.2 279.3,-28 64.9,-34.2 88,-135.5 64.3,-230.1 -29.4,-116.7 6.4,-456.7 6.4,-601.2l0 -921.8c0,-104.7 13.6,-214.4 13.7,-300.1 0.5,-204.9 -0.2,-410.1 -0.4,-615 -0.1,-105.9 21.9,-188.5 13.3,-293.8 -10.5,-130.9 -14.9,-150.3 2.2,-285.1zm23593.9 -3038c63.7,61 50.2,9.2 82.6,117.7 121.1,405.5 114.5,1056.2 114.5,1528.6 0,531.8 8.1,1088.8 13.6,1630.1 1.2,118.9 -14.7,264 -13.4,400.8 2.5,244 -20.6,511.8 -93.8,727.7 -19.2,57 -24.6,111.2 -39.2,167.8 -15.3,58.8 -56,59.9 -96.6,103.8 -29.8,32.3 -80.8,47.1 -123.6,83.3 -61.4,52 -60,43.8 -153.5,53.6 -130.1,13.5 -254.1,12.3 -395,12.3 -524.6,0 -526.9,62.3 -528,-294.1 -0.2,-63.1 13.8,-114.9 13.7,-193.3 0,-80.7 -9.6,-128.7 -13.5,-193.5l0 -795.2c9.6,-118.8 0.2,-283.6 0.2,-407.4 0,-547.7 0,-1095.5 0,-1643.2 0,-121.7 15.4,-1257.8 37.1,-1378.7 10.6,-58.3 25.9,-117.8 31.3,-169.3 108.2,-8.9 251.4,-7.1 367,17.2 131.9,27.6 264,6.9 376.6,30.7 51.9,11 132,10.8 187.1,20.1 160,27.2 103.8,24.2 142.4,64.6 33.7,35.2 32.2,10.9 54.6,52 15.5,28.5 14.9,44.2 35.9,64.4zm224.1 6228.9c84.4,-8.9 262.7,-37.2 332.2,-68.6 61.4,-27.9 78.2,-33.2 154.8,-52.2 66.9,-16.6 89.4,-49.4 128.8,-71.7 42.8,-24.2 93.7,-29.4 138.9,-61.6 41,-29.1 72.2,-45.3 127.7,-72.5 132.5,-65.3 315.7,-283.4 384.5,-417.6 29.4,-57.4 41.5,-45.5 71,-135.8 22.4,-68.2 28.1,-84.2 67.5,-132.9 31.8,-39.4 69.2,-235 93.2,-307.6 22.2,-67 83.1,-617.5 91,-717.1 56.2,-702.4 40.4,-1634.2 40.4,-2378 0,-148.7 18.6,-694.8 -6.5,-795 -24.8,-98.5 5.1,-275.1 -17.5,-390 -11.9,-60.4 5.1,-123.9 -10.7,-189.6 -11.6,-48.2 -14.3,-117.9 -27,-173.5 -12.5,-54.6 -35.1,-442.2 -45.9,-555.3 -9.2,-95.7 -36.7,-88.9 -60.2,-140.1 -16.9,-36.9 -24.7,-124.9 -36.2,-171 -14.3,-57.7 -50.6,-69.1 -70.1,-130.2 -13.5,-42.6 -30.5,-107 -60.5,-140.2 -61.3,-67.8 -28.5,-68 -68.2,-132 -43.5,-70.1 -146.8,-151.4 -193.1,-214.3 -27.2,-36.8 -193.5,-149.3 -232.6,-168.5 -61.6,-30.1 -68.8,-65.1 -127.6,-79.4 -53.1,-12.8 -109.3,-20.2 -151.6,-48.9 -108.3,-73.3 -209.5,-47.7 -315.7,-84.9 -236,-82.8 -470,-48.5 -703.9,-97.9 -107.1,-22.6 -278.3,-6.4 -382,-25.5 -118,-21.8 -262.3,-10.8 -389.9,-10.8 -139,0 -255.3,-13.3 -387.4,-13.5 -152.3,-0.1 -670.1,35.9 -788.4,7 -102.1,-25 -244.2,10.9 -344.1,-3.5 -100.6,-14.5 -251.9,8.3 -299.9,94.2 -31.8,57.1 -62.1,285.8 -36.2,363.5 10.5,31.5 -0.5,1009.4 -1.3,1189 -0.3,77.4 13.9,112.9 13.6,186.9 -0.3,77.6 -14.3,113.5 -13.6,187.1 4.5,524.3 13.4,1062.1 13.4,1596.5l0 4028c0,380 8.3,408.2 401,407.6 520.3,-0.7 1064.2,13.4 1596.5,13.4 262,0 546.5,-30.8 781.6,-26.6 141.7,2.5 225.5,-55.4 334,-66.9zm-9966.5 -7969.2c-50.2,29.1 -318.4,-16.8 -383.7,16.8 -133,68.3 -137.3,91 -137.3,263.7 0,266.7 13.3,499.7 13.3,768.2 0,536.6 0,1073.2 0,1609.8 0,1074.9 13.3,2130.3 13.3,3206.4l0 2010.6c-0.7,200.1 83,142.8 240,161.4 332,39.3 1201.4,25.8 1583.9,25.8 155.3,0 674.5,6.6 787,-21.2 57.5,-14.2 132.1,3.4 192.6,-7.9 39.7,-7.4 132.4,-23.3 176,-24.3 71.9,-1.6 98.4,-28.3 161.2,-39.2 57.1,-9.8 114.8,-18.4 172.2,-28.2 51.8,-8.8 99.2,-26.7 145.3,-55.1 42.1,-25.9 109,-31.1 157.8,-42.6 16.5,-3.9 257.7,-112.1 281.3,-126 43.4,-25.6 57.1,-44.5 120.3,-80.2 30.2,-17.2 70.2,-62.2 109.3,-91.2 57.8,-42.8 112.1,-148.8 187.9,-212.9 36.1,-30.8 123.7,-217.5 132.5,-268.5 19.3,-111.2 43.5,-73.3 71.7,-128.6 24.6,-47.6 30.5,-110.2 42.4,-164.8 25.1,-114.2 73.1,-186.2 74.7,-326.2 1,-82.9 28.5,-277.4 45.9,-354.7 42.6,-188.2 47.7,-544.5 47.7,-760.7 0,-521.7 13.4,-1062.4 13.4,-1596.4 0,-417.2 13.9,-1178.4 -41.9,-1567.9 -6.7,-46.7 -28.9,-113 -36.7,-163.8 -9.3,-60.4 -2.6,-120.7 -13.2,-187 -19,-117.5 -7.1,-244.9 -32.3,-368.5 -14.6,-71.3 -39.8,-87.7 -53.7,-146.7 -9.8,-41 -22.9,-120.2 -38.9,-161.6 -19.2,-50.2 -50.1,-79.8 -67.3,-133 -14.4,-44.5 -30.1,-108.4 -61,-146.4 -43,-52.9 -32.4,-77.4 -64.1,-136.3 -69.8,-129.7 -185,-201.8 -317.2,-283.9 -42.9,-26.6 -38.5,-47.2 -115.5,-85 -62.2,-30.3 -53.1,-42.8 -131.9,-68.4 -107.9,-35 -191.4,-87.8 -295.3,-112.3 -223.8,-52.3 -439.1,-107 -688.7,-113 -58.4,-1.4 -112.2,-13.1 -187.1,-13.2 -63.7,-0.1 -114.3,-25.7 -173.2,-27.2 -128.3,-3.3 -254.8,-13.3 -394.2,-13.3 -164.4,0 -1525.5,-12.9 -1536.5,-6.5z"/>
 </g>
</svg>
